<svg width="162" height="21" viewBox="0 0 162 21" fill="none" xmlns="http://www.w3.org/2000/svg">
<path d="M1.808 4.686C1.40933 4.686 1.06267 4.53867 0.768 4.244C0.473333 3.94933 0.326 3.60267 0.326 3.204V2.502C0.326 2.10333 0.473333 1.75667 0.768 1.462C1.06267 1.16733 1.40933 1.02 1.808 1.02H13.404C13.8027 1.02 14.1493 1.16733 14.444 1.462C14.7387 1.75667 14.886 2.10333 14.886 2.502V3.204C14.886 3.60267 14.7387 3.94933 14.444 4.244C14.1493 4.53867 13.8027 4.686 13.404 4.686H10.076C9.93733 4.686 9.868 4.75533 9.868 4.894V18.518C9.868 18.9167 9.72067 19.2633 9.426 19.558C9.13133 19.8527 8.78467 20 8.386 20H6.826C6.42733 20 6.08067 19.8527 5.786 19.558C5.49133 19.2633 5.344 18.9167 5.344 18.518V4.894C5.344 4.75533 5.27467 4.686 5.136 4.686H1.808ZM19.6728 20C19.2742 20 18.9275 19.8527 18.6328 19.558C18.3382 19.2633 18.1908 18.9167 18.1908 18.518V2.502C18.1908 2.10333 18.3382 1.75667 18.6328 1.462C18.9275 1.16733 19.2742 1.02 19.6728 1.02H21.1548C21.5535 1.02 21.8915 1.16733 22.1688 1.462C22.4635 1.75667 22.6108 2.10333 22.6108 2.502V8.222C22.6108 8.378 22.6888 8.456 22.8448 8.456H28.2008C28.3568 8.456 28.4348 8.378 28.4348 8.222V2.502C28.4348 2.10333 28.5735 1.75667 28.8508 1.462C29.1455 1.16733 29.4922 1.02 29.8908 1.02H31.3728C31.7715 1.02 32.1182 1.16733 32.4128 1.462C32.7075 1.75667 32.8548 2.10333 32.8548 2.502V18.518C32.8548 18.9167 32.7075 19.2633 32.4128 19.558C32.1182 19.8527 31.7715 20 31.3728 20H29.8908C29.4922 20 29.1455 19.8527 28.8508 19.558C28.5735 19.2633 28.4348 18.9167 28.4348 18.518V12.018C28.4348 11.8793 28.3568 11.81 28.2008 11.81H22.8448C22.6888 11.81 22.6108 11.8793 22.6108 12.018V18.518C22.6108 18.9167 22.4635 19.2633 22.1688 19.558C21.8915 19.8527 21.5535 20 21.1548 20H19.6728ZM38.2582 20C37.8595 20 37.5128 19.8527 37.2182 19.558C36.9408 19.2633 36.8022 18.9167 36.8022 18.518V2.502C36.8022 2.10333 36.9408 1.75667 37.2182 1.462C37.5128 1.16733 37.8595 1.02 38.2582 1.02H47.4622C47.8608 1.02 48.1988 1.16733 48.4762 1.462C48.7708 1.75667 48.9182 2.10333 48.9182 2.502V3.1C48.9182 3.49867 48.7708 3.84533 48.4762 4.14C48.1988 4.43467 47.8608 4.582 47.4622 4.582H41.4302C41.2915 4.582 41.2222 4.65133 41.2222 4.79V8.222C41.2222 8.378 41.2915 8.456 41.4302 8.456H46.9422C47.3408 8.456 47.6788 8.60333 47.9562 8.898C48.2508 9.19267 48.3982 9.53933 48.3982 9.938V10.328C48.3982 10.7267 48.2508 11.0733 47.9562 11.368C47.6788 11.6627 47.3408 11.81 46.9422 11.81H41.4302C41.2915 11.81 41.2222 11.8793 41.2222 12.018V16.23C41.2222 16.3687 41.2915 16.438 41.4302 16.438H47.4622C47.8608 16.438 48.1988 16.5853 48.4762 16.88C48.7708 17.1747 48.9182 17.5213 48.9182 17.92V18.518C48.9182 18.9167 48.7708 19.2633 48.4762 19.558C48.1988 19.8527 47.8608 20 47.4622 20H38.2582ZM64.5289 11.94V16.516C64.5289 16.672 64.6069 16.7673 64.7629 16.802C65.1269 16.8713 65.5689 16.906 66.0889 16.906C67.3196 16.906 68.2209 16.6807 68.7929 16.23C69.3649 15.762 69.6509 15.0513 69.6509 14.098C69.6509 12.5033 68.3509 11.706 65.7509 11.706H64.7369C64.5983 11.706 64.5289 11.784 64.5289 11.94ZM64.5289 4.504V8.326C64.5289 8.46467 64.5983 8.534 64.7369 8.534H65.3869C67.9176 8.534 69.1829 7.78 69.1829 6.272C69.1829 4.83333 68.1256 4.114 66.0109 4.114C65.5083 4.114 65.0836 4.14867 64.7369 4.218C64.5983 4.25267 64.5289 4.348 64.5289 4.504ZM61.6429 20.052C61.2269 20.0173 60.8803 19.8353 60.6029 19.506C60.3256 19.1767 60.1869 18.804 60.1869 18.388V2.632C60.1869 2.19867 60.3256 1.826 60.6029 1.514C60.8976 1.18467 61.2529 1.00267 61.6689 0.967999C63.0209 0.829333 64.3469 0.76 65.6469 0.76C70.6736 0.76 73.1869 2.38067 73.1869 5.622C73.1869 6.714 72.8316 7.64133 72.1209 8.404C71.4276 9.16667 70.4916 9.652 69.3129 9.86C69.2956 9.86 69.2869 9.87733 69.2869 9.912C69.2869 9.92933 69.3043 9.938 69.3389 9.938C70.7083 10.1287 71.7916 10.6487 72.5889 11.498C73.4036 12.3473 73.8109 13.3613 73.8109 14.54C73.8109 16.464 73.1696 17.9027 71.8869 18.856C70.6216 19.792 68.6283 20.26 65.9069 20.26C64.5376 20.26 63.1163 20.1907 61.6429 20.052ZM88.6793 10.51C88.6793 6.43667 87.2233 4.4 84.3113 4.4C81.3993 4.4 79.9433 6.43667 79.9433 10.51C79.9433 14.5833 81.3993 16.62 84.3113 16.62C87.2233 16.62 88.6793 14.5833 88.6793 10.51ZM90.8113 17.686C89.2166 19.402 87.0499 20.26 84.3113 20.26C81.5726 20.26 79.4059 19.402 77.8113 17.686C76.2166 15.9527 75.4193 13.5607 75.4193 10.51C75.4193 7.45933 76.2166 5.076 77.8113 3.36C79.4059 1.62667 81.5726 0.76 84.3113 0.76C87.0499 0.76 89.2166 1.62667 90.8113 3.36C92.4059 5.076 93.2033 7.45933 93.2033 10.51C93.2033 13.5607 92.4059 15.9527 90.8113 17.686ZM108.332 10.51C108.332 6.43667 106.876 4.4 103.964 4.4C101.052 4.4 99.5956 6.43667 99.5956 10.51C99.5956 14.5833 101.052 16.62 103.964 16.62C106.876 16.62 108.332 14.5833 108.332 10.51ZM110.464 17.686C108.869 19.402 106.702 20.26 103.964 20.26C101.225 20.26 99.0583 19.402 97.4636 17.686C95.869 15.9527 95.0716 13.5607 95.0716 10.51C95.0716 7.45933 95.869 5.076 97.4636 3.36C99.0583 1.62667 101.225 0.76 103.964 0.76C106.702 0.76 108.869 1.62667 110.464 3.36C112.058 5.076 112.856 7.45933 112.856 10.51C112.856 13.5607 112.058 15.9527 110.464 17.686ZM117.122 20C116.723 20 116.377 19.8527 116.082 19.558C115.787 19.2633 115.64 18.9167 115.64 18.518V2.502C115.64 2.10333 115.787 1.75667 116.082 1.462C116.377 1.16733 116.723 1.02 117.122 1.02H118.604C119.003 1.02 119.341 1.16733 119.618 1.462C119.913 1.75667 120.06 2.10333 120.06 2.502V9.132C120.06 9.14933 120.069 9.158 120.086 9.158C120.121 9.158 120.138 9.14933 120.138 9.132L124.558 2.268C125.078 1.436 125.832 1.02 126.82 1.02H129.004C129.316 1.02 129.541 1.15867 129.68 1.436C129.819 1.71333 129.801 1.982 129.628 2.242L124.35 9.938C124.263 10.0593 124.263 10.1807 124.35 10.302L129.914 18.778C130.087 19.038 130.096 19.3067 129.94 19.584C129.801 19.8613 129.576 20 129.264 20H127.08C126.092 20 125.347 19.584 124.844 18.752L120.138 11.108C120.138 11.0907 120.121 11.082 120.086 11.082C120.069 11.082 120.06 11.0907 120.06 11.108V18.518C120.06 18.9167 119.913 19.2633 119.618 19.558C119.341 19.8527 119.003 20 118.604 20H117.122ZM137.2 12.408C135.016 11.7147 133.438 10.8567 132.468 9.834C131.497 8.794 131.012 7.52867 131.012 6.038C131.012 4.40867 131.575 3.126 132.702 2.19C133.846 1.23667 135.475 0.76 137.59 0.76C139.184 0.76 140.632 0.941999 141.932 1.306C142.348 1.42733 142.677 1.67867 142.92 2.06C143.18 2.424 143.31 2.83133 143.31 3.282V4.036C143.31 4.38267 143.162 4.65133 142.868 4.842C142.573 5.03267 142.261 5.06733 141.932 4.946C140.458 4.426 139.098 4.166 137.85 4.166C136.255 4.166 135.458 4.79 135.458 6.038C135.458 7.09533 136.151 7.84933 137.538 8.3C139.93 9.028 141.585 9.87733 142.504 10.848C143.44 11.8187 143.908 13.0927 143.908 14.67C143.908 18.3967 141.559 20.26 136.862 20.26C135.371 20.26 134.019 20.026 132.806 19.558C132.39 19.402 132.06 19.1333 131.818 18.752C131.592 18.3533 131.48 17.92 131.48 17.452V16.62C131.48 16.308 131.618 16.074 131.896 15.918C132.173 15.7447 132.45 15.7273 132.728 15.866C133.993 16.49 135.284 16.802 136.602 16.802C137.52 16.802 138.214 16.6287 138.682 16.282C139.167 15.918 139.41 15.4067 139.41 14.748C139.41 14.176 139.245 13.708 138.916 13.344C138.586 12.98 138.014 12.668 137.2 12.408ZM148.683 20C148.284 20 147.937 19.8527 147.643 19.558C147.348 19.2633 147.201 18.9167 147.201 18.518V2.502C147.201 2.10333 147.348 1.75667 147.643 1.462C147.937 1.16733 148.284 1.02 148.683 1.02H150.165C150.563 1.02 150.901 1.16733 151.179 1.462C151.473 1.75667 151.621 2.10333 151.621 2.502V8.222C151.621 8.378 151.699 8.456 151.855 8.456H157.211C157.367 8.456 157.445 8.378 157.445 8.222V2.502C157.445 2.10333 157.583 1.75667 157.861 1.462C158.155 1.16733 158.502 1.02 158.901 1.02H160.383C160.781 1.02 161.128 1.16733 161.423 1.462C161.717 1.75667 161.865 2.10333 161.865 2.502V18.518C161.865 18.9167 161.717 19.2633 161.423 19.558C161.128 19.8527 160.781 20 160.383 20H158.901C158.502 20 158.155 19.8527 157.861 19.558C157.583 19.2633 157.445 18.9167 157.445 18.518V12.018C157.445 11.8793 157.367 11.81 157.211 11.81H151.855C151.699 11.81 151.621 11.8793 151.621 12.018V18.518C151.621 18.9167 151.473 19.2633 151.179 19.558C150.901 19.8527 150.563 20 150.165 20H148.683Z" fill="#0B579D"/>
</svg>
